<svg width="50" height="34" viewBox="0 0 50 34" fill="none" xmlns="http://www.w3.org/2000/svg">
<path d="M5 33.05V28.35C5 27.1833 5.3 26.125 5.9 25.175C6.5 24.225 7.33333 23.5167 8.4 23.05C10.8333 21.9833 13.025 21.2167 14.975 20.75C16.925 20.2833 18.9333 20.05 21 20.05C23.0667 20.05 25.0667 20.2833 27 20.75C28.9333 21.2167 31.1167 21.9833 33.55 23.05C34.6167 23.5167 35.4583 24.225 36.075 25.175C36.6917 26.125 37 27.1833 37 28.35V33.05H5ZM40 33.05V28.35C40 26.25 39.4667 24.525 38.4 23.175C37.3333 21.825 35.9333 20.7333 34.2 19.9C36.5 20.1667 38.6667 20.5583 40.7 21.075C42.7333 21.5917 44.3833 22.1833 45.65 22.85C46.75 23.4833 47.6167 24.2667 48.25 25.2C48.8833 26.1333 49.2 27.1833 49.2 28.35V33.05H40ZM21 17C18.8 17 17 16.3 15.6 14.9C14.2 13.5 13.5 11.7 13.5 9.5C13.5 7.3 14.2 5.5 15.6 4.1C17 2.7 18.8 2 21 2C23.2 2 25 2.7 26.4 4.1C27.8 5.5 28.5 7.3 28.5 9.5C28.5 11.7 27.8 13.5 26.4 14.9C25 16.3 23.2 17 21 17ZM39 9.5C39 11.7 38.3 13.5 36.9 14.9C35.5 16.3 33.7 17 31.5 17C31.1333 17 30.725 16.975 30.275 16.925C29.825 16.875 29.4167 16.7833 29.05 16.65C29.85 15.8167 30.4583 14.7917 30.875 13.575C31.2917 12.3583 31.5 11 31.5 9.5C31.5 8 31.2917 6.675 30.875 5.525C30.4583 4.375 29.85 3.31667 29.05 2.35C29.4167 2.25 29.825 2.16667 30.275 2.1C30.725 2.03333 31.1333 2 31.5 2C33.7 2 35.5 2.7 36.9 4.1C38.3 5.5 39 7.3 39 9.5ZM8 30.05H34V28.35C34 27.8167 33.8417 27.3 33.525 26.8C33.2083 26.3 32.8167 25.95 32.35 25.75C29.95 24.6833 27.9333 23.9667 26.3 23.6C24.6667 23.2333 22.9 23.05 21 23.05C19.1 23.05 17.325 23.2333 15.675 23.6C14.025 23.9667 12 24.6833 9.6 25.75C9.13333 25.95 8.75 26.3 8.45 26.8C8.15 27.3 8 27.8167 8 28.35V30.05ZM21 14C22.3 14 23.375 13.575 24.225 12.725C25.075 11.875 25.5 10.8 25.5 9.5C25.5 8.2 25.075 7.125 24.225 6.275C23.375 5.425 22.3 5 21 5C19.7 5 18.625 5.425 17.775 6.275C16.925 7.125 16.5 8.2 16.5 9.5C16.5 10.8 16.925 11.875 17.775 12.725C18.625 13.575 19.7 14 21 14Z" fill="black"/>
<path d="M3 31.05V26.35C3 25.1833 3.3 24.125 3.9 23.175C4.5 22.225 5.33333 21.5167 6.4 21.05C8.83333 19.9833 11.025 19.2167 12.975 18.75C14.925 18.2833 16.9333 18.05 19 18.05C21.0667 18.05 23.0667 18.2833 25 18.75C26.9333 19.2167 29.1167 19.9833 31.55 21.05C32.6167 21.5167 33.4583 22.225 34.075 23.175C34.6917 24.125 35 25.1833 35 26.35V31.05H3ZM38 31.05V26.35C38 24.25 37.4667 22.525 36.4 21.175C35.3333 19.825 33.9333 18.7333 32.2 17.9C34.5 18.1667 36.6667 18.5583 38.7 19.075C40.7333 19.5917 42.3833 20.1833 43.65 20.85C44.75 21.4833 45.6167 22.2667 46.25 23.2C46.8833 24.1333 47.2 25.1833 47.2 26.35V31.05H38ZM19 15C16.8 15 15 14.3 13.6 12.9C12.2 11.5 11.5 9.7 11.5 7.5C11.5 5.3 12.2 3.5 13.6 2.1C15 0.7 16.8 0 19 0C21.2 0 23 0.7 24.4 2.1C25.8 3.5 26.5 5.3 26.5 7.5C26.5 9.7 25.8 11.5 24.4 12.9C23 14.3 21.2 15 19 15ZM37 7.5C37 9.7 36.3 11.5 34.9 12.9C33.5 14.3 31.7 15 29.5 15C29.1333 15 28.725 14.975 28.275 14.925C27.825 14.875 27.4167 14.7833 27.05 14.65C27.85 13.8167 28.4583 12.7917 28.875 11.575C29.2917 10.3583 29.5 9 29.5 7.5C29.5 6 29.2917 4.675 28.875 3.525C28.4583 2.375 27.85 1.31667 27.05 0.35C27.4167 0.25 27.825 0.166667 28.275 0.1C28.725 0.0333333 29.1333 0 29.5 0C31.7 0 33.5 0.7 34.9 2.1C36.3 3.5 37 5.3 37 7.5ZM6 28.05H32V26.35C32 25.8167 31.8417 25.3 31.525 24.8C31.2083 24.3 30.8167 23.95 30.35 23.75C27.95 22.6833 25.9333 21.9667 24.3 21.6C22.6667 21.2333 20.9 21.05 19 21.05C17.1 21.05 15.325 21.2333 13.675 21.6C12.025 21.9667 10 22.6833 7.6 23.75C7.13333 23.95 6.75 24.3 6.45 24.8C6.15 25.3 6 25.8167 6 26.35V28.05ZM19 12C20.3 12 21.375 11.575 22.225 10.725C23.075 9.875 23.5 8.8 23.5 7.5C23.5 6.2 23.075 5.125 22.225 4.275C21.375 3.425 20.3 3 19 3C17.7 3 16.625 3.425 15.775 4.275C14.925 5.125 14.5 6.2 14.5 7.5C14.5 8.8 14.925 9.875 15.775 10.725C16.625 11.575 17.7 12 19 12Z" fill="url(#paint0_linear_6_26)"/>
<defs>
<linearGradient id="paint0_linear_6_26" x1="25.1" y1="0" x2="25.1" y2="31.05" gradientUnits="userSpaceOnUse">
<stop stop-color="#EE4758"/>
<stop offset="1" stop-color="#D64C7F"/>
</linearGradient>
</defs>
</svg>
